<svg version="1.1" id="LOGO_x5F_B7" xmlns="http://www.w3.org/2000/svg" xmlns:xlink="http://www.w3.org/1999/xlink" x="0px"
	 y="0px" viewBox="0 0 1080 263.8" style="enable-background:new 0 0 1080 263.8;" xml:space="preserve">
<g id="LOGO1">
	<g>
		<g>
			<g>
				<path d="M212.3,128.2c-15.8,0-30.2,5.8-41.3,15.3L18.5,258.2l188.5-3.2l13-0.2l0,0c31.6-3.7,56.2-30.6,56.2-63.1
					C275.9,156.5,247.6,128.2,212.3,128.2z M212.3,242.9c-28.3,0-51.1-23-51.1-51.1c0-28.3,23-51.1,51.1-51.1s51.1,23,51.1,51.1
					S240.6,242.9,212.3,242.9z" fill="#fff"/>
				<circle cx="212.3" cy="191.8" r="43.4" fill="#fff"/>
				<g>
					<path d="M113.4,47.9c-10.2,7.2-16.9,17.6-19.7,29l-46,145.3l120.9-89.1l8.4-6l0,0c18.8-16.9,22.3-45.7,7.2-66.9
						C168,37,136.2,31.6,113.4,47.9z M166.6,122.4c-18.3,13-43.6,8.8-56.9-9.5c-13-18.3-8.8-43.6,9.5-56.9s43.6-8.8,56.9,9.5
						C189.1,84.1,184.7,109.4,166.6,122.4z" fill="#fff"/>
					<circle cx="142.9" cy="89.2" r="34.6" fill="#fff"/>
				</g>
				<path d="M9.2,30.2c-3.2,9.7-2.8,20,0.7,29l39.2,119.5L87.2,60.7l2.6-8.1l0,0C94.2,32.1,82.5,11,62.4,4.2
					C40.3-3.4,16.6,8.2,9.2,30.2z M80.7,54.6c-6,17.6-25.1,26.9-42.7,20.9c-17.6-6-26.9-25.1-20.9-42.7S42.2,5.9,59.8,11.9
					C77.2,17.9,86.5,37,80.7,54.6z" fill="#fff"/>
				<circle cx="48.7" cy="43.7" r="28.6" fill="#fff"/>
				<path d="M176.3,139.1" fill="#fff"/>
			</g>
			<g>
				<path d="M304.5,260.7l23.7-111.9H362l-5.1,24.1H404c3.2,0,5.6-0.5,6.7-1.6c1.2-0.9,2.1-2.8,2.8-5.3l3.7-18.3
					c0.5-1.4,0.7-2.8,0.7-3.9c0-1.9-0.5-3-1.6-3.7c-0.9-0.7-2.8-0.9-5.3-0.9h-80.8l6-29.2h95.9c7.7,0,13.2,1.4,16.7,4.2
					c3.5,2.8,5.1,7,5.1,12.5c0,1.4,0,2.8-0.2,4.2c-0.2,1.4-0.5,3-0.7,4.6l-6,28.3c-1.4,6.3-3.7,10.7-7.2,13.7
					c-3.5,2.8-7.7,4.6-13,5.3c4.4,0.5,7.9,1.6,10.7,3.2c2.8,1.9,4.2,4.6,4.2,8.6c0,0.7,0,1.4,0,2.3c0,0.7-0.2,1.4-0.2,2.3l-7.7,35.7
					c-1.9,8.6-5.1,15.1-9.7,19.3c-4.6,4.2-11.8,6.3-21.4,6.3h-98.2V260.7z M406.8,202.7c0.2-0.7,0.2-1.4,0.2-2.1c0-0.7,0-1.2,0-1.6
					c0-1.9-0.7-3.2-1.9-3.7c-1.2-0.7-3-0.9-5.6-0.9H352l-7.9,36.7h48c3.5,0,5.8-0.5,7.2-1.6c1.4-1.2,2.6-3.5,3.2-7L406.8,202.7z" fill="#fff"/>
				<path d="M457.7,260.7l87.5-121.9H472l6-28.8H586l-4.6,22.7l-89.1,127.9H457.7z" fill="#fff"/>
				<path d="M701.4,260.7l-5.6-107.5L641,260.7h-37.8l-5.8-150.6h34.8l2.6,110.3l54.5-110.3h33.9l4.6,110l51.3-110h33.2l-72.9,150.6
					H701.4z" fill="#fff"/>
				<path d="M815.4,260.7c-6.3,0-10.9-1.2-13.7-3.2c-2.8-2.1-4.2-5.6-4.2-10.2c0-2.1,0.5-4.9,1.2-8.6l14.4-68.5
					c1.6-7.7,4.4-13.2,8.1-16.7s9.7-5.3,17.9-5.3h76.1c5.6,0,9.7,1.2,12.1,3.2c2.6,2.1,3.7,5.3,3.7,9.7c0,2.8-0.2,5.3-0.9,8.1
					l-9.3,44.3h-75l3.7-18.8H895l3.2-15.1c0.2-0.7,0.2-1.6,0.2-2.8s-0.2-2.1-0.9-2.6c-0.7-0.5-1.9-0.7-3.7-0.7H849
					c-2.6,0-4.2,0.5-5.1,1.2c-0.9,0.9-1.6,2.6-2.3,5.1l-10.4,48.5c-0.2,0.7-0.2,1.4-0.2,1.9c0,0.5,0,0.9,0,1.4
					c0,1.4,0.5,2.3,1.2,2.8c0.7,0.5,2.1,0.7,3.9,0.7h75.9l-5.3,25.5L815.4,260.7L815.4,260.7z" fill="#fff"/>
				<path d="M933.3,260.7L967.2,101H998l-27.9,132.1h48.5c2.3,0,3.7-0.5,4.9-1.4c0.9-0.9,1.9-2.6,2.3-4.9l9.5-45.5
					c0.2-1.4,0.5-2.6,0.5-2.8c0-1.4-0.5-2.3-1.2-2.8c-0.9-0.5-2.1-0.7-3.7-0.7h-37.6l5.8-26.9h52.9c11.8,0,17.9,4.9,17.9,14.9
					c0,0.9,0,2.1-0.2,3.2c-0.2,1.2-0.5,2.6-0.7,3.7l-14.4,68.5c-1.6,7.7-4.4,13.2-8.4,16.7c-3.9,3.5-10,5.3-17.9,5.3h-95.2V260.7z" fill="#fff"
					/>
			</g>
		</g>
	</g>
</g>
</svg>